<svg version="1.1" id="Layer_1" xmlns="http://www.w3.org/2000/svg" xmlns:xlink="http://www.w3.org/1999/xlink" x="0px" y="0px"
     viewBox="0 0 50 50" style="enable-background:new 0 0 50 50;" xml:space="preserve">
<style type="text/css">
	.st0{fill:url(#SVGID_1_);}
</style>
    <radialGradient id="SVGID_1_" cx="-97.9196" cy="153.1187" r="1.3584" gradientTransform="matrix(28.8307 19.3809 19.3815 -28.8303 -144.9668 6316.0903)" gradientUnits="userSpaceOnUse">
	<stop  offset="0" style="stop-color:#71C7AB"/>
        <stop  offset="1" style="stop-color:#58C9E9"/>
</radialGradient>
    <path class="st0" d="M42.4,14c7.8,7.7,7.9,20.2,0.2,28c0,0-0.1,0.1-0.1,0.1c-4.6,4.6-10.9,7.2-17.5,7.2c-7.3,0-14.2-3.2-18.9-8.8
	c9.7,8,24.1,7.5,33.1-1.5c6.1-6,6.1-15.7,0.2-21.8c-0.1-0.1-0.1-0.1-0.2-0.2c-6.1-6.1-16-6.1-22.1,0c-2.6,2.6-2.6,6.7-0.1,9.3
	c0,0,0,0,0.1,0.1c2.6,2.6,6.9,2.6,9.5,0c0.9-0.9,2.3-0.9,3.2,0c0.9,0.9,0.9,2.2,0,3.1c0,0,0,0,0,0c-4.4,4.3-11.4,4.3-15.8,0
	c-4.3-4.3-4.4-11.2-0.1-15.5c0,0,0.1-0.1,0.1-0.1C21.8,6.3,34.5,6.3,42.4,14L42.4,14z M25,0.7c7.3,0,14.2,3.2,18.9,8.8
	c-9.7-8-24.1-7.5-33.1,1.5v0c-6.1,6-6.1,15.7-0.2,21.8c0.1,0.1,0.1,0.1,0.2,0.2c6.1,6.1,16,6.1,22.1,0c2.6-2.6,2.6-6.7,0.1-9.3
	c0,0,0,0-0.1-0.1c-2.6-2.6-6.9-2.6-9.5,0c-0.9,0.9-2.3,0.9-3.2,0c-0.9-0.9-0.9-2.2,0-3.1c0,0,0,0,0,0c4.4-4.3,11.4-4.3,15.8,0
	c4.3,4.3,4.4,11.2,0.1,15.5c0,0-0.1,0.1-0.1,0.1c-7.9,7.8-20.6,7.8-28.5,0c-7.8-7.7-7.9-20.2-0.2-28c0.1-0.1,0.1-0.1,0.2-0.2
	C12.2,3.2,18.5,0.6,25,0.7z"/>
</svg>
